# xmcd
#
# Track frame offsets: 
#        150
#        23997
#        45390
#        66130
#        88572
#        106762
#        133935
#        152505
#        185325
#        203872
#        221267
#        261580
#
# Disc length: 3762 seconds
#
# Revision: 3
# Processed by: cddbd v1.5.1PL2 Copyright (c) Steve Scherf et al.
# Submitted via: ExactAudioCopy v0.95b2
#
DISCID=a20eb00c
DTITLE=B.B. King - Blues Summit
DYEAR=1993
DGENRE=Blues
TTITLE0=Playin' with My Friends (with Robert Cray)
TTITLE1=Since I Met You Baby (with Katie Webster)
TTITLE2=I Pity the Fool (with Buddy Guy)
TTITLE3=You Shook Me (with John Lee Hooker)
TTITLE4=Something You Got (with Koko Taylor)
TTITLE5=There's Something on Your Mind (with Etta James)
TTITLE6=Little By Little (with Lowell Fulson)
TTITLE7=Call It Stormy Monday (with Albert Collins)
TTITLE8=You're the Boss (with Ruth Brown)
TTITLE9=We're Gonna Make It (with Irma Thomas)
TTITLE10=I Gotta Move Out of This Neghbourhood/Nobody Loves Me But My 
TTITLE10=Mother (with Orchestra)
TTITLE11=Everybody's Had the Blues (with Joe Louis Walker)
EXTD=YEAR: 1993
EXTT0=Duet with Robert Cray\n
EXTT1=Duet with Katie Webster\n
EXTT2=Duet with Buddy Guy\n
EXTT3=Duet with John Lee Hooker\n
EXTT4=Duet with Koko Taylor\n
EXTT5=Duet with Etta James\n
EXTT6=Duet with Lowell Fulson\n
EXTT7=Duet with Albert Collins\n
EXTT8=Duet with Ruth Brown\n
EXTT9=Duet with Irma Thomas\n
EXTT10=
EXTT11=Duet with Joe Louis Walker\n
PLAYORDER=
